<svg width="430" height="932" viewBox="0 0 430 932" fill="none" xmlns="http://www.w3.org/2000/svg">
  <defs><linearGradient id="bg" x1="215" y1="0" x2="215" y2="932" gradientUnits="userSpaceOnUse"><stop stop-color="#121722"/><stop offset="1" stop-color="#0B0E14"/></linearGradient></defs>
  <rect width="430" height="932" rx="38" fill="url(#bg)"/>
<circle cx="52" cy="160" r="150" fill="#B5935B" opacity="0.08"/>
<circle cx="390" cy="720" r="170" fill="#B5935B" opacity="0.055"/>
<rect x="163" y="18" width="104" height="8" rx="4" fill="#252D3A"/>
<text x="28" y="64" fill="#B5935B" font-size="13" font-family="Arial, sans-serif" font-weight="700" text-anchor="start" letter-spacing="1">HOME VIEW 2</text>
<text x="28" y="104" fill="#FFFFFF" font-size="31" font-family="Georgia, serif" font-weight="500" text-anchor="start" >Progress snapshot</text>
<text x="28" y="133" fill="#A8B0BD" font-size="15" font-family="Arial, sans-serif" font-weight="400" text-anchor="start" >Visual-first home for fast comparison and momentum.</text>
<rect x="24" y="166" width="382" height="254" rx="24" fill="#121820" fill-opacity="1" stroke="#252D3A" stroke-width="1"/>
<circle cx="110" cy="266" r="54" fill="none" stroke="#252D3A" stroke-width="10"/>
<circle cx="110" cy="266" r="54" fill="none" stroke="#B5935B" stroke-width="10" stroke-linecap="round" stroke-dasharray="244.3 339.3" transform="rotate(-90 110 266)"/>
<text x="110" y="264" fill="#FFFFFF" font-size="23" font-family="Arial, sans-serif" font-weight="700" text-anchor="middle" >6</text>
<text x="110" y="290" fill="#A8B0BD" font-size="11" font-family="Arial, sans-serif" font-weight="600" text-anchor="middle" >streak</text>
<circle cx="215" cy="266" r="54" fill="none" stroke="#252D3A" stroke-width="10"/>
<circle cx="215" cy="266" r="54" fill="none" stroke="#6A91D8" stroke-width="10" stroke-linecap="round" stroke-dasharray="162.9 339.3" transform="rotate(-90 215 266)"/>
<text x="215" y="264" fill="#FFFFFF" font-size="23" font-family="Arial, sans-serif" font-weight="700" text-anchor="middle" >4/10</text>
<text x="215" y="290" fill="#A8B0BD" font-size="11" font-family="Arial, sans-serif" font-weight="600" text-anchor="middle" >craving</text>
<circle cx="320" cy="266" r="54" fill="none" stroke="#252D3A" stroke-width="10"/>
<circle cx="320" cy="266" r="54" fill="none" stroke="#6AAE75" stroke-width="10" stroke-linecap="round" stroke-dasharray="210.4 339.3" transform="rotate(-90 320 266)"/>
<text x="320" y="264" fill="#FFFFFF" font-size="23" font-family="Arial, sans-serif" font-weight="700" text-anchor="middle" >Med</text>
<text x="320" y="290" fill="#A8B0BD" font-size="11" font-family="Arial, sans-serif" font-weight="600" text-anchor="middle" >confidence</text>
<text x="48" y="374" fill="#FFFFFF" font-size="20" font-family="Georgia, serif" font-weight="500" text-anchor="start" >Your trend is moving in the right direction.</text>
<text x="48" y="400" fill="#A8B0BD" font-size="14" font-family="Arial, sans-serif" font-weight="400" text-anchor="start" >Two lower-craving check-ins this week. Keep it small.</text>
<rect x="24" y="440" width="382" height="142" rx="22" fill="#121820" fill-opacity="1" stroke="#252D3A" stroke-width="1"/>
<text x="48" y="476" fill="#FFFFFF" font-size="21" font-family="Arial, sans-serif" font-weight="600" text-anchor="start" >Craving trend</text>
<polyline points="52,548 102,526 152,536 202,504 252,514 302,486 354,498" fill="none" stroke="#B5935B" stroke-width="4" stroke-linecap="round" stroke-linejoin="round"/><circle cx="52" cy="548" r="3.5" fill="#B5935B"/><circle cx="102" cy="526" r="3.5" fill="#B5935B"/><circle cx="152" cy="536" r="3.5" fill="#B5935B"/><circle cx="202" cy="504" r="3.5" fill="#B5935B"/><circle cx="252" cy="514" r="3.5" fill="#B5935B"/><circle cx="302" cy="486" r="3.5" fill="#B5935B"/><circle cx="354" cy="498" r="3.5" fill="#B5935B"/>
<text x="48" y="502" fill="#7A8494" font-size="13" font-family="Arial, sans-serif" font-weight="400" text-anchor="start" >Last 7 days, placeholder data</text>
<rect x="24" y="602" width="116" height="92" rx="18" fill="#121820" fill-opacity="1" stroke="#252D3A" stroke-width="1"/>
<text x="48" y="636" fill="#FFFFFF" font-size="25" font-family="Arial, sans-serif" font-weight="700" text-anchor="start" >$18</text>
<text x="48" y="662" fill="#A8B0BD" font-size="12" font-family="Arial, sans-serif" font-weight="600" text-anchor="start" >estimated saved</text>
<rect x="157" y="602" width="116" height="92" rx="18" fill="#121820" fill-opacity="1" stroke="#252D3A" stroke-width="1"/>
<text x="181" y="636" fill="#FFFFFF" font-size="25" font-family="Arial, sans-serif" font-weight="700" text-anchor="start" >9h</text>
<text x="181" y="662" fill="#A8B0BD" font-size="12" font-family="Arial, sans-serif" font-weight="600" text-anchor="start" >time reclaimed</text>
<rect x="290" y="602" width="116" height="92" rx="18" fill="#121820" fill-opacity="1" stroke="#252D3A" stroke-width="1"/>
<text x="314" y="636" fill="#FFFFFF" font-size="25" font-family="Arial, sans-serif" font-weight="700" text-anchor="start" >11</text>
<text x="314" y="662" fill="#A8B0BD" font-size="12" font-family="Arial, sans-serif" font-weight="600" text-anchor="start" >urges passed</text>
<rect x="24" y="718" width="184" height="48" rx="999" fill="#B5935B" fill-opacity="1" stroke="rgba(255,255,255,0.28)" stroke-width="1"/><text x="116.0" y="748.0" fill="#FFFFFF" font-size="16" font-family="Arial, sans-serif" font-weight="700" text-anchor="middle" >Check in</text>
<rect x="222" y="718" width="184" height="48" rx="999" fill="#1A222C" fill-opacity="1" stroke="#252D3A" stroke-width="1"/><text x="314.0" y="747.0" fill="#FFFFFF" font-size="13" font-family="Arial, sans-serif" font-weight="700" text-anchor="middle" >Open today’s plan</text>
<rect x="20" y="790" width="390" height="110" rx="28" fill="#11161E" fill-opacity="1" stroke="#252D3A" stroke-width="1"/>
<rect x="15" y="812" width="62" height="64" rx="18" fill="#17202B" fill-opacity="1" stroke="#1F2935" stroke-width="1"/>
<text x="46" y="838" fill="#B5935B" font-size="22" font-family="Arial, sans-serif" font-weight="700" text-anchor="middle" >⌂</text>
<text x="46" y="862" fill="#FFFFFF" font-size="11" font-family="Arial, sans-serif" font-weight="600" text-anchor="middle" >Home</text>
<rect x="99" y="812" width="62" height="64" rx="18" fill="transparent" fill-opacity="1"/>
<text x="130" y="838" fill="#A8B0BD" font-size="22" font-family="Arial, sans-serif" font-weight="700" text-anchor="middle" >◦</text>
<text x="130" y="862" fill="#A8B0BD" font-size="11" font-family="Arial, sans-serif" font-weight="600" text-anchor="middle" >Social</text>
<rect x="184" y="812" width="62" height="64" rx="18" fill="#171F2A" fill-opacity="1"/>
<text x="215" y="838" fill="#A8B0BD" font-size="22" font-family="Arial, sans-serif" font-weight="700" text-anchor="middle" >!</text>
<text x="215" y="862" fill="#A8B0BD" font-size="11" font-family="Arial, sans-serif" font-weight="600" text-anchor="middle" >SOS</text>
<rect x="269" y="812" width="62" height="64" rx="18" fill="transparent" fill-opacity="1"/>
<text x="300" y="838" fill="#A8B0BD" font-size="22" font-family="Arial, sans-serif" font-weight="700" text-anchor="middle" >□</text>
<text x="300" y="862" fill="#A8B0BD" font-size="11" font-family="Arial, sans-serif" font-weight="600" text-anchor="middle" >Resources</text>
<rect x="353" y="812" width="62" height="64" rx="18" fill="transparent" fill-opacity="1"/>
<text x="384" y="838" fill="#A8B0BD" font-size="22" font-family="Arial, sans-serif" font-weight="700" text-anchor="middle" >⚙</text>
<text x="384" y="862" fill="#A8B0BD" font-size="11" font-family="Arial, sans-serif" font-weight="600" text-anchor="middle" >Settings</text>
</svg>
